<svg width="200" height="200" viewBox="0 0 200 200" fill="none" xmlns="http://www.w3.org/2000/svg">
  <defs>
    <linearGradient id="emeraldGradient2" x1="0%" y1="0%" x2="100%" y2="100%">
      <stop offset="0%" style="stop-color:#047857" />
      <stop offset="100%" style="stop-color:#065F46" />
    </linearGradient>
  </defs>
  <circle cx="100" cy="100" r="80" fill="url(#emeraldGradient2)"/>
  <path d="M100 40 C70 40 60 70 70 100 C80 130 100 160 100 160 C100 160 120 130 130 100 C140 70 130 40 100 40 Z" fill="#34D399" opacity="0.8"/>
  <path d="M100 40 C100 40 120 70 120 100 C120 130 100 160 100 160 C100 160 80 130 80 100 C80 70 100 40 100 40 Z" fill="#10B981" opacity="0.8"/>
</svg>